HIERARCHY
ROOT joint_Root
{
	OFFSET 0.0 0.0 0.0
	CHANNELS 6 Xposition Yposition Zposition Zrotation Xrotation Yrotation 
	JOINT Hips
	{
		OFFSET -17.1583 93.1646 452.98
		CHANNELS 6 Xposition Yposition Zposition Zrotation Xrotation Yrotation 
		JOINT Spine
		{
			OFFSET 15.7357 0.0 0.0
			CHANNELS 6 Xposition Yposition Zposition Zrotation Xrotation Yrotation 
			JOINT Chest
			{
				OFFSET 8.98455 -0.406207 0.0
				CHANNELS 6 Xposition Yposition Zposition Zrotation Xrotation Yrotation 
				JOINT Neck
				{
					OFFSET 16.3773 0.0 0.0
					CHANNELS 6 Xposition Yposition Zposition Zrotation Xrotation Yrotation 
					JOINT Head
					{
						OFFSET 6.45672 0.0 0.0
						CHANNELS 6 Xposition Yposition Zposition Zrotation Xrotation Yrotation 
						End Site
						{
							OFFSET 0.0 0.0 0.0
						}
					}
				}
				JOINT Shoulder_L
				{
					OFFSET 12.9942 -0.242716 4.98039
					CHANNELS 6 Xposition Yposition Zposition Zrotation Xrotation Yrotation 
					JOINT UpperArm_L
					{
						OFFSET 5.34809 0.0 0.0
						CHANNELS 6 Xposition Yposition Zposition Zrotation Xrotation Yrotation 
						JOINT LowerArm_L
						{
							OFFSET 24.3286 1.87007e-05 0.0
							CHANNELS 6 Xposition Yposition Zposition Zrotation Xrotation Yrotation 
							JOINT Hand_L
							{
								OFFSET 22.2916 0.0 0.0
								CHANNELS 6 Xposition Yposition Zposition Zrotation Xrotation Yrotation 
								End Site
								{
									OFFSET 0.0 0.0 0.0
								}
							}
						}
					}
				}
				JOINT Shoulder_R
				{
					OFFSET 12.9945 -0.242716 -4.98039
					CHANNELS 6 Xposition Yposition Zposition Zrotation Xrotation Yrotation 
					JOINT UpperArm_R
					{
						OFFSET -5.34813 0.0 0.0
						CHANNELS 6 Xposition Yposition Zposition Zrotation Xrotation Yrotation 
						JOINT LowerArm_R
						{
							OFFSET -24.3289 0.000322201 0.0
							CHANNELS 6 Xposition Yposition Zposition Zrotation Xrotation Yrotation 
							JOINT Hand_R
							{
								OFFSET -22.2915 -0.000108084 0.0
								CHANNELS 6 Xposition Yposition Zposition Zrotation Xrotation Yrotation 
								End Site
								{
									OFFSET 0.0 0.0 0.0
								}
							}
						}
					}
				}
			}
		}
		JOINT UpperLeg_L
		{
			OFFSET -2.19248 -6.46944 0.0
			CHANNELS 6 Xposition Yposition Zposition Zrotation Xrotation Yrotation 
			JOINT LowerLeg_L
			{
				OFFSET 39.0811 0.0 -1.23785e-05
				CHANNELS 6 Xposition Yposition Zposition Zrotation Xrotation Yrotation 
				JOINT Foot_L
				{
					OFFSET 40.9854 0.0 -1.26872e-05
					CHANNELS 6 Xposition Yposition Zposition Zrotation Xrotation Yrotation 
					JOINT Toes_L
					{
						OFFSET 11.7543 0.0 0.0
						CHANNELS 6 Xposition Yposition Zposition Zrotation Xrotation Yrotation 
						End Site
						{
							OFFSET 0.0 0.0 0.0
						}
					}
				}
			}
		}
		JOINT UpperLeg_R
		{
			OFFSET -2.19251 6.46944 0.0
			CHANNELS 6 Xposition Yposition Zposition Zrotation Xrotation Yrotation 
			JOINT LowerLeg_R
			{
				OFFSET -39.0811 -0.00228153 -0.0401928
				CHANNELS 6 Xposition Yposition Zposition Zrotation Xrotation Yrotation 
				JOINT Foot_R
				{
					OFFSET -40.9854 0.0 0.0
					CHANNELS 6 Xposition Yposition Zposition Zrotation Xrotation Yrotation 
					JOINT Toes_R
					{
						OFFSET -11.7543 0.0 0.0
						CHANNELS 6 Xposition Yposition Zposition Zrotation Xrotation Yrotation 
						End Site
						{
							OFFSET 0.0 0.0 0.0
						}
					}
				}
			}
		}
	}
}
MOTION
Frames:	6
Frame Time:	0.0333333
0.000000 0.000000 0.000000 0.000000 0.000000 -0.000000 -2.791180 93.486000 0.361965 87.558600 2.099020 -2.787790 15.735700 0.000005 -0.000001 34.570300 89.266800 -32.995000 8.984550 -0.406207 -0.000000 -6.913770 -1.406720 3.070960 16.377300 -0.000001 -0.000001 -3.746100 1.229290 -0.497891 6.456720 -0.000001 -0.000000 -6.993700 1.148130 -1.635600 12.994200 -0.242716 4.980390 -89.128500 -1.621570 -61.738600 5.348090 -0.000007 -0.000001 -43.832500 -59.332400 -103.650000 24.328600 0.000019 0.000005 6.407380 37.120500 -10.544400 22.291600 -0.000001 0.000005 58.518700 4.550650 15.765500 12.994500 -0.242716 -4.980390 93.208600 -5.568860 -59.985400 -5.348130 -0.000001 -0.000004 -39.249300 -60.977000 -104.978000 -24.328900 0.000322 -0.000009 1.237770 7.273510 -9.693140 -22.291500 -0.000108 -0.000004 37.121600 5.662160 -16.363000 -2.192480 -6.469440 -0.000000 -172.052000 -10.608000 -2.450300 39.081100 -0.000007 -0.000012 -0.004440 0.022899 10.972800 40.985400 -0.000006 -0.000013 -2.725560 15.665800 -66.967000 11.754300 -0.000000 0.000003 -0.001621 0.191493 -8.808210 -2.192510 6.469440 -0.000001 179.396000 10.307600 -178.707000 -39.081100 -0.002282 -0.040193 0.002701 0.007154 5.162460 -40.985400 0.000008 0.000006 -8.197700 7.703320 -63.279600 -11.754300 -0.000006 -0.000006 -0.010249 0.273158 -5.475210
0.000000 0.000000 0.000000 0.000000 0.000000 -0.000000 -2.789520 93.530000 0.262461 87.563500 2.028130 -3.062940 15.735700 0.000005 -0.000001 36.707400 89.307500 -35.122100 8.984550 -0.406207 -0.000000 -6.919060 -1.311070 3.096740 16.377300 -0.000001 -0.000001 -4.077840 1.146580 -0.581986 6.456720 -0.000001 -0.000000 -7.522570 1.049740 -1.700660 12.994200 -0.242716 4.980390 -88.972400 -1.874580 -61.261400 5.348090 -0.000007 -0.000001 -37.480600 -59.696500 -98.153000 24.328600 0.000019 0.000005 4.327930 40.817000 -6.604900 22.291600 -0.000001 0.000005 58.446500 4.681530 13.470600 12.994500 -0.242716 -4.980390 93.226000 -5.600980 -59.993700 -5.348130 -0.000001 -0.000004 -37.318400 -61.090900 -103.053000 -24.328900 0.000322 -0.000009 0.973057 7.242120 -7.678080 -22.291500 -0.000108 -0.000004 35.863600 5.666870 -16.908200 -2.192480 -6.469440 -0.000000 -172.083000 -10.507400 -2.637070 39.081100 -0.000007 -0.000012 -0.008259 0.044036 10.621700 40.985400 -0.000006 -0.000013 -3.305860 15.548500 -66.475400 11.754300 -0.000000 0.000003 -0.001230 0.186255 -9.021150 -2.192510 6.469440 -0.000001 179.434000 10.344400 -178.927000 -39.081100 -0.002282 -0.040193 0.003492 -0.001694 4.870750 -40.985400 0.000008 0.000006 -8.424220 7.740870 -62.973500 -11.754300 -0.000006 -0.000006 -0.010190 0.272718 -5.493190
0.000000 0.000000 0.000000 0.000000 0.000000 -0.000000 -2.794720 93.566900 0.170163 87.551800 2.135260 -3.394780 15.735700 0.000005 -0.000001 37.519100 89.358300 -35.927200 8.984550 -0.406207 -0.000000 -6.966360 -1.220270 3.114920 16.377300 -0.000001 -0.000001 -4.316760 1.029070 -0.553874 6.456720 -0.000001 -0.000000 -7.867230 0.884397 -1.804220 12.994200 -0.242716 4.980390 -88.992000 -1.812010 -60.906800 5.348090 -0.000007 -0.000001 -35.404500 -59.343600 -95.331300 24.328600 0.000019 0.000005 2.039820 39.299000 -3.216860 22.291600 -0.000001 0.000005 52.303100 4.809530 11.108000 12.994500 -0.242716 -4.980390 93.177700 -5.506710 -59.948700 -5.348130 -0.000001 -0.000004 -35.766000 -61.012100 -100.449000 -24.328900 0.000322 -0.000009 0.392384 4.663600 -4.804880 -22.291500 -0.000108 -0.000004 33.996100 5.656050 -15.581100 -2.192480 -6.469440 -0.000000 -172.101000 -10.481800 -2.936070 39.081100 -0.000007 -0.000012 -0.011082 0.060642 10.355600 40.985400 -0.000006 -0.000013 -3.715030 15.602600 -66.147900 11.754300 -0.000000 0.000003 -0.001330 0.187611 -8.966010 -2.192510 6.469440 -0.000001 179.534000 10.447900 -179.211000 -39.081100 -0.002282 -0.040193 0.003877 -0.006541 4.625260 -40.985400 0.000008 0.000006 -8.311650 7.737530 -62.775300 -11.754300 -0.000006 -0.000006 -0.010151 0.272432 -5.504900
0.000000 0.000000 0.000000 0.000000 0.000000 -0.000000 -2.807710 93.599600 0.110584 87.566400 2.357690 -3.707100 15.735700 0.000005 -0.000001 39.209400 89.399200 -37.629400 8.984550 -0.406207 -0.000000 -6.989630 -1.132340 3.096240 16.377300 -0.000001 -0.000001 -4.474000 0.897683 -0.498361 6.456720 -0.000001 -0.000000 -8.127900 0.686901 -1.829870 12.994200 -0.242716 4.980390 -89.156300 -1.511830 -60.830000 5.348090 -0.000007 -0.000001 -36.867300 -58.663900 -94.567700 24.328600 0.000019 0.000005 0.488473 33.732300 -0.876647 22.291600 -0.000001 0.000005 43.418500 4.811960 11.119400 12.994500 -0.242716 -4.980390 93.094200 -5.341810 -59.858300 -5.348130 -0.000001 -0.000004 -36.178000 -60.510300 -98.435300 -24.328900 0.000322 -0.000009 -0.030373 -1.028760 -1.739920 -22.291500 -0.000108 -0.000004 31.638800 5.624560 -12.867000 -2.192480 -6.469440 -0.000000 -172.123000 -10.416700 -3.198050 39.081100 -0.000007 -0.000012 -0.013363 0.075543 10.030900 40.985400 -0.000006 -0.000013 -4.029070 15.799500 -65.850400 11.754300 -0.000000 0.000003 -0.001346 0.187833 -8.956970 -2.192510 6.469440 -0.000001 179.606000 10.608700 -179.384000 -39.081100 -0.002282 -0.040193 0.004232 -0.011847 4.264030 -40.985400 0.000008 0.000006 -8.387850 7.659860 -62.537200 -11.754300 -0.000006 -0.000006 -0.009986 0.271200 -5.555280
0.000000 0.000000 0.000000 0.000000 0.000000 -0.000000 -2.826070 93.614100 0.052939 87.574700 2.724760 -3.939180 15.735700 0.000005 -0.000001 40.933500 89.405900 -39.383900 8.984550 -0.406207 -0.000000 -6.971550 -1.094900 3.037660 16.377300 -0.000001 -0.000001 -4.617920 0.731566 -0.384037 6.456720 -0.000001 -0.000000 -8.225500 0.575928 -1.789780 12.994200 -0.242716 4.980390 -89.368900 -1.140320 -61.033900 5.348090 -0.000007 -0.000001 -40.696600 -57.829200 -94.895200 24.328600 0.000019 0.000005 0.001612 26.376200 -0.000002 22.291600 -0.000001 0.000005 35.611800 4.671790 13.707700 12.994500 -0.242716 -4.980390 92.993000 -5.141510 -59.739000 -5.348130 -0.000001 -0.000004 -38.690100 -59.715300 -97.026600 -24.328900 0.000322 -0.000009 0.001136 -6.875020 -0.000043 -22.291500 -0.000108 -0.000004 28.905900 5.550700 -8.688420 -2.192480 -6.469440 -0.000000 -172.138000 -10.170200 -3.575080 39.081100 -0.000007 -0.000012 -0.016805 0.094564 10.076500 40.985400 -0.000006 -0.000013 -4.408470 15.865100 -65.697000 11.754300 -0.000000 0.000003 -0.001396 0.188508 -8.929530 -2.192510 6.469440 -0.000001 179.682000 10.918400 -179.483000 -39.081100 -0.002282 -0.040193 0.004292 -0.013573 3.975900 -40.985400 0.000008 0.000006 -8.343060 7.600390 -62.405600 -11.754300 -0.000006 -0.000006 -0.010041 0.271612 -5.538440
0.000000 0.000000 0.000000 0.000000 0.000000 -0.000000 -2.847090 93.643300 -0.009274 87.607500 3.135560 -4.227940 15.735700 0.000005 -0.000001 38.987000 89.361200 -37.460100 8.984550 -0.406207 -0.000000 -6.945390 -1.186890 2.986930 16.377300 -0.000001 -0.000001 -4.793710 0.616367 -0.323963 6.456720 -0.000001 -0.000000 -8.343470 0.574945 -1.736220 12.994200 -0.242716 4.980390 -89.574600 -0.778285 -61.336200 5.348090 -0.000007 -0.000001 -45.980000 -57.158600 -95.151300 24.328600 0.000019 0.000005 0.001280 19.660300 -0.000001 22.291600 -0.000001 0.000005 29.651500 4.451100 17.431600 12.994500 -0.242716 -4.980390 92.922900 -4.978570 -59.529300 -5.348130 -0.000001 -0.000004 -41.279300 -58.695900 -94.861700 -24.328900 0.000322 -0.000009 0.000998 -12.848100 -0.000073 -22.291500 -0.000108 -0.000004 26.965800 5.448560 -4.588470 -2.192480 -6.469440 -0.000000 -172.183000 -9.944440 -3.817430 39.081100 -0.000007 -0.000012 -0.016973 0.099666 9.664510 40.985400 -0.000006 -0.000013 -4.488500 16.013600 -65.356300 11.754300 -0.000000 0.000003 -0.001310 0.187341 -8.976990 -2.192510 6.469440 -0.000001 179.760000 11.059100 -179.651000 -39.081100 -0.002282 -0.040193 0.004588 -0.019299 3.672900 -40.985400 0.000008 0.000006 -8.413340 7.306150 -62.263800 -11.754300 -0.000006 -0.000006 -0.010338 0.273815 -5.448300
